<svg width="200" height="80" viewBox="0 0 200 80" fill="none" xmlns="http://www.w3.org/2000/svg">
  <defs>
    <!-- Gradient definitions -->
    <linearGradient id="wifiGradient" x1="0%" y1="0%" x2="100%" y2="100%">
      <stop offset="0%" style="stop-color:#0EA5E9;stop-opacity:1" />
      <stop offset="100%" style="stop-color:#3B82F6;stop-opacity:1" />
    </linearGradient>
    <linearGradient id="computerGradient" x1="0%" y1="0%" x2="100%" y2="100%">
      <stop offset="0%" style="stop-color:#6366F1;stop-opacity:1" />
      <stop offset="100%" style="stop-color:#8B5CF6;stop-opacity:1" />
    </linearGradient>
    <linearGradient id="standGradient" x1="0%" y1="0%" x2="100%" y2="100%">
      <stop offset="0%" style="stop-color:#10B981;stop-opacity:1" />
      <stop offset="100%" style="stop-color:#059669;stop-opacity:1" />
    </linearGradient>
  </defs>
  
  <!-- WiFi Symbol -->
  <circle cx="40" cy="25" r="25" fill="url(#wifiGradient)"/>
  <path d="M40 35C42.2091 35 44 33.2091 44 31C44 28.7909 42.2091 27 40 27C37.7909 27 36 28.7909 36 31C36 33.2091 37.7909 35 40 35Z" fill="white"/>
  <path d="M32 23C35.3137 20.6863 39.6863 20.6863 43 23" stroke="white" stroke-width="2" stroke-linecap="round"/>
  <path d="M28 19C33.5228 14.4772 41.4772 14.4772 47 19" stroke="white" stroke-width="2" stroke-linecap="round"/>
  
  <!-- Computer/Monitor -->
  <rect x="25" y="45" width="60" height="25" rx="2" fill="url(#computerGradient)"/>
  <rect x="28" y="48" width="54" height="16" fill="#1F2937"/>
  <rect x="30" y="50" width="50" height="2" fill="#0EA5E9"/>
  <rect x="30" y="54" width="35" height="2" fill="#10B981"/>
  <rect x="30" y="58" width="25" height="2" fill="#F59E0B"/>
  
  <!-- Stand -->
  <rect x="45" y="70" width="10" height="8" fill="url(#standGradient)"/>
  <rect x="35" y="78" width="30" height="2" fill="url(#standGradient)"/>
</svg>